<?xml version="1.0" encoding="UTF-8" standalone="no"?>
<!-- Created with Inkscape (http://www.inkscape.org/) -->

<svg
   xmlns:dc="http://purl.org/dc/elements/1.1/"
   xmlns:cc="http://creativecommons.org/ns#"
   xmlns:rdf="http://www.w3.org/1999/02/22-rdf-syntax-ns#"
   xmlns:svg="http://www.w3.org/2000/svg"
   xmlns="http://www.w3.org/2000/svg"
   xmlns:sodipodi="http://sodipodi.sourceforge.net/DTD/sodipodi-0.dtd"
   xmlns:inkscape="http://www.inkscape.org/namespaces/inkscape"
   width="64"
   height="64"
   id="svg2"
   version="1.1"
   inkscape:version="0.48.4 r9939"
   sodipodi:docname="Glyph_TrashCan.svg"
   inkscape:export-filename="Glyph_TrashCan.png"
   inkscape:export-xdpi="22.5"
   inkscape:export-ydpi="22.5">
  <title
     id="title2985">Glyph TrashCan</title>
  <sodipodi:namedview
     showgrid="true">
    <inkscape:grid
       type="xygrid"
       id="grid3071"
       empspacing="4"
       visible="true"
       enabled="true"
       snapvisiblegridlinesonly="true" />
  </sodipodi:namedview>
  <metadata
     id="metadata7">
    <rdf:RDF>
      <cc:Work
         rdf:about="">
        <dc:format>image/svg+xml</dc:format>
        <dc:type
           rdf:resource="http://purl.org/dc/dcmitype/StillImage" />
        <dc:title>Glyph TrashCan</dc:title>
        <dc:date>2013-07-21</dc:date>
        <dc:creator>
          <cc:Agent>
            <dc:title>Leucos</dc:title>
          </cc:Agent>
        </dc:creator>
        <cc:license
           rdf:resource="http://creativecommons.org/licenses/by-nc-sa/3.0/" />
      </cc:Work>
      <cc:License
         rdf:about="http://creativecommons.org/licenses/by-nc-sa/3.0/">
        <cc:permits
           rdf:resource="http://creativecommons.org/ns#Reproduction" />
        <cc:permits
           rdf:resource="http://creativecommons.org/ns#Distribution" />
        <cc:requires
           rdf:resource="http://creativecommons.org/ns#Notice" />
        <cc:requires
           rdf:resource="http://creativecommons.org/ns#Attribution" />
        <cc:prohibits
           rdf:resource="http://creativecommons.org/ns#CommercialUse" />
        <cc:permits
           rdf:resource="http://creativecommons.org/ns#DerivativeWorks" />
        <cc:requires
           rdf:resource="http://creativecommons.org/ns#ShareAlike" />
      </cc:License>
    </rdf:RDF>
  </metadata>
  <g
     id="layer1">
    <path
       style="fill:#404040"
       d="m 12,16 0,41 c 0,2 1,3 3,3 l 34,0 c 2,0 3,-1 3,-3 l 0,-41 z m 8,6 2,0 c 1,0 2,1 2,2 l 0,28 c 0,1 -1,2 -2,2 l -2,0 c -1,0 -2,-1 -2,-2 l 0,-28 c 0,-1 1,-2 2,-2 z m 11,0 2,0 c 1,0 2,1 2,2 l 0,28 c 0,1 -1,2 -2,2 l -2,0 c -1,0 -2,-1 -2,-2 l 0,-28 c 0,-1 1,-2 2,-2 z m 11,0 2,0 c 1,0 2,1 2,2 l 0,28 c 0,1 -1,2 -2,2 l -2,0 c -1,0 -2,-1 -2,-2 l 0,-28 c 0,-1 1,-2 2,-2 z"
       id="path3115" />
    <path
       style="fill:#404040"
       d="M 24,4 24,8 8,8 8,12 56,12 56,8 40,8 40,4 z"
       id="path3084" />
  </g>
</svg>
