<?xml version="1.0" encoding="UTF-8" standalone="no"?>
<!-- Created with Inkscape (http://www.inkscape.org/) -->

<svg
   xmlns:dc="http://purl.org/dc/elements/1.1/"
   xmlns:cc="http://creativecommons.org/ns#"
   xmlns:rdf="http://www.w3.org/1999/02/22-rdf-syntax-ns#"
   xmlns:svg="http://www.w3.org/2000/svg"
   xmlns="http://www.w3.org/2000/svg"
   xmlns:sodipodi="http://sodipodi.sourceforge.net/DTD/sodipodi-0.dtd"
   xmlns:inkscape="http://www.inkscape.org/namespaces/inkscape"
   width="64"
   height="64"
   id="svg3179"
   version="1.1"
   inkscape:version="0.48.4 r9939"
   sodipodi:docname="Glyph_Refresh.svg"
   inkscape:export-filename="Glyph_Refresh.png"
   inkscape:export-xdpi="22.5"
   inkscape:export-ydpi="22.5">
  <title
     id="title3196">Glyph Refresh</title>
  <sodipodi:namedview
     id="base"
     showgrid="true">
    <inkscape:grid
       type="xygrid"
       id="grid3194"
       empspacing="4"
       visible="true"
       enabled="true"
       snapvisiblegridlinesonly="true" />
  </sodipodi:namedview>
  <metadata
     id="metadata3184">
    <rdf:RDF>
      <cc:Work
         rdf:about="">
        <dc:format>image/svg+xml</dc:format>
        <dc:type
           rdf:resource="http://purl.org/dc/dcmitype/StillImage" />
        <dc:title>Glyph Refresh</dc:title>
        <dc:creator>
          <cc:Agent>
            <dc:title>Leucos</dc:title>
          </cc:Agent>
        </dc:creator>
        <cc:license
           rdf:resource="http://creativecommons.org/licenses/by-nc-sa/3.0/" />
        <dc:date>2013-08-23</dc:date>
      </cc:Work>
      <cc:License
         rdf:about="http://creativecommons.org/licenses/by-nc-sa/3.0/">
        <cc:permits
           rdf:resource="http://creativecommons.org/ns#Reproduction" />
        <cc:permits
           rdf:resource="http://creativecommons.org/ns#Distribution" />
        <cc:requires
           rdf:resource="http://creativecommons.org/ns#Notice" />
        <cc:requires
           rdf:resource="http://creativecommons.org/ns#Attribution" />
        <cc:prohibits
           rdf:resource="http://creativecommons.org/ns#CommercialUse" />
        <cc:permits
           rdf:resource="http://creativecommons.org/ns#DerivativeWorks" />
        <cc:requires
           rdf:resource="http://creativecommons.org/ns#ShareAlike" />
      </cc:License>
    </rdf:RDF>
  </metadata>
  <g
     id="layer1">
    <path
       id="path3141"
       style="fill:#424242;fill-opacity:1;fill-rule:nonzero;stroke:none"
       d="m 27.69001,48.83436 c -3.15,-0.61 -5.9775,-2.125 -8.215,-4.305 l 12.7025,-0.645 -6.3525,-6.2975 -18.1175,0.3975 -0.2375,18.1275 6.355,6.28 0.455,-10.60998 c 3.2925,2.88248 7.305,4.8975 11.7275,5.7525 13.5825,2.6225 27.6725,-6.02 30.665,-21.45 l -9.96,-0.1 c -1.705,8.7875 -10.235,14.5525 -19.0225,12.85 m 8.33374,-33.36624 c 3.02,0.585 5.7575,1.99498 7.955,4.0325 l -12.015,0.60998 6.35,6.3025 18.12,-0.405 0.24,-18.11998 -6.3575,-6.28 -0.4775,11.25 c -3.36248,-3.0675 -7.53,-5.195 -12.1375,-6.085 -13.565,-2.6275 -27.2725,5.41 -30.375,21.43248 l 9.695,0.1074 c 1.6975,-8.7775 10.2225,-14.54 19.00252,-12.845" />
  </g>
</svg>
