<?xml version="1.0" encoding="UTF-8" standalone="no"?>
<!-- Created with Inkscape (http://www.inkscape.org/) -->

<svg
   xmlns:dc="http://purl.org/dc/elements/1.1/"
   xmlns:cc="http://creativecommons.org/ns#"
   xmlns:rdf="http://www.w3.org/1999/02/22-rdf-syntax-ns#"
   xmlns:svg="http://www.w3.org/2000/svg"
   xmlns="http://www.w3.org/2000/svg"
   xmlns:sodipodi="http://sodipodi.sourceforge.net/DTD/sodipodi-0.dtd"
   xmlns:inkscape="http://www.inkscape.org/namespaces/inkscape"
   width="64"
   height="64"
   id="svg2"
   version="1.1"
   inkscape:version="0.48.4 r9939"
   sodipodi:docname="Icon_Gear.svg"
   inkscape:export-filename="Icon_Gear.png"
   inkscape:export-xdpi="22.5"
   inkscape:export-ydpi="22.5">
  <title
     id="title3085">Icon Gear</title>
  <sodipodi:namedview
     id="base"
     showgrid="true">
    <inkscape:grid
       type="xygrid"
       id="grid2985"
       empspacing="4"
       visible="true"
       enabled="true"
       snapvisiblegridlinesonly="true" />
  </sodipodi:namedview>
  <metadata
     id="metadata7">
    <rdf:RDF>
      <cc:Work
         rdf:about="">
        <dc:format>image/svg+xml</dc:format>
        <dc:type
           rdf:resource="http://purl.org/dc/dcmitype/StillImage" />
        <dc:title>Icon Gear</dc:title>
        <cc:license
           rdf:resource="http://creativecommons.org/licenses/by-nc-sa/3.0/" />
        <dc:creator>
          <cc:Agent>
            <dc:title>Leucos</dc:title>
          </cc:Agent>
        </dc:creator>
        <dc:date>2012-11-13</dc:date>
      </cc:Work>
      <cc:License
         rdf:about="http://creativecommons.org/licenses/by-nc-sa/3.0/">
        <cc:permits
           rdf:resource="http://creativecommons.org/ns#Reproduction" />
        <cc:permits
           rdf:resource="http://creativecommons.org/ns#Distribution" />
        <cc:requires
           rdf:resource="http://creativecommons.org/ns#Notice" />
        <cc:requires
           rdf:resource="http://creativecommons.org/ns#Attribution" />
        <cc:prohibits
           rdf:resource="http://creativecommons.org/ns#CommercialUse" />
        <cc:permits
           rdf:resource="http://creativecommons.org/ns#DerivativeWorks" />
        <cc:requires
           rdf:resource="http://creativecommons.org/ns#ShareAlike" />
      </cc:License>
    </rdf:RDF>
  </metadata>
  <g
     id="layer1">
    <path
       style="fill:#424242"
       d="m 28,4 0,8.4375 8,0 L 36,4 z M 15,9.375 9.375,15 l 5.9375,5.9375 5.625,-5.625 z m 34,0 -5.9375,5.9375 5.625,5.625 L 54.625,15 z M 4,28 l 0,8 8.4375,0 0,-8 z m 47.5625,0 0,8 L 60,36 60,28 z M 15.3125,43.0625 9.375,49 15,54.625 20.9375,48.6875 z m 33.375,0 -5.625,5.625 L 49,54.625 54.625,49 z M 28,51.5625 28,60 l 8,0 0,-8.4375 z"
       id="rect3000-1" />
    <path
       style="fill:#424242"
       d="M 32,10 C 20,10 10,20 10,32 10,44 20,54 32,54 44,54 54,44 54,32 54,20 44,10 32,10 z m 0,8 c 8,0 14,6 14,14 0,8 -6,14 -14,14 -8,0 -14,-6 -14,-14 0,-8 6,-14 14,-14 z"
       id="path3059" />
    <path
       style="fill:#424242"
       id="path3064"
       d="m 38,32 a 6,6 0 1 1 -12,0 6,6 0 1 1 12,0 z" />
  </g>
</svg>
