<?xml version="1.0" encoding="UTF-8" standalone="no"?>
<!-- Created with Inkscape (http://www.inkscape.org/) -->

<svg
   xmlns:dc="http://purl.org/dc/elements/1.1/"
   xmlns:cc="http://creativecommons.org/ns#"
   xmlns:rdf="http://www.w3.org/1999/02/22-rdf-syntax-ns#"
   xmlns:svg="http://www.w3.org/2000/svg"
   xmlns="http://www.w3.org/2000/svg"
   xmlns:sodipodi="http://sodipodi.sourceforge.net/DTD/sodipodi-0.dtd"
   xmlns:inkscape="http://www.inkscape.org/namespaces/inkscape"
   width="64"
   height="64"
   id="svg2"
   version="1.1"
   inkscape:version="0.48.4 r9939"
   sodipodi:docname="Icon_CheckAll.svg"
   inkscape:export-filename="Icon_CheckAll.png"
   inkscape:export-xdpi="22.5"
   inkscape:export-ydpi="22.5">
  <title
     id="title2991">Icon Check Backup</title>
  <sodipodi:namedview
     id="base"
     showgrid="true">
    <inkscape:grid
       type="xygrid"
       id="grid2985"
       empspacing="4"
       visible="true"
       enabled="true"
       snapvisiblegridlinesonly="true" />
  </sodipodi:namedview>
  <metadata
     id="metadata7">
    <rdf:RDF>
      <cc:Work
         rdf:about="">
        <dc:format>image/svg+xml</dc:format>
        <dc:type
           rdf:resource="http://purl.org/dc/dcmitype/StillImage" />
        <dc:title>Icon Check Backup</dc:title>
        <cc:license
           rdf:resource="http://creativecommons.org/licenses/by-nc-sa/3.0/" />
        <dc:creator>
          <cc:Agent>
            <dc:title>Leucos</dc:title>
          </cc:Agent>
        </dc:creator>
        <dc:date>2013-07-21</dc:date>
      </cc:Work>
      <cc:License
         rdf:about="http://creativecommons.org/licenses/by-nc-sa/3.0/">
        <cc:permits
           rdf:resource="http://creativecommons.org/ns#Reproduction" />
        <cc:permits
           rdf:resource="http://creativecommons.org/ns#Distribution" />
        <cc:requires
           rdf:resource="http://creativecommons.org/ns#Notice" />
        <cc:requires
           rdf:resource="http://creativecommons.org/ns#Attribution" />
        <cc:prohibits
           rdf:resource="http://creativecommons.org/ns#CommercialUse" />
        <cc:permits
           rdf:resource="http://creativecommons.org/ns#DerivativeWorks" />
        <cc:requires
           rdf:resource="http://creativecommons.org/ns#ShareAlike" />
      </cc:License>
    </rdf:RDF>
  </metadata>
  <g
     id="layer1">
    <path
       style="fill:#414a64"
       d="m 0,0 0,24 24,0 0,-24 -24,0 z m 4,4 16,0 0,16 -16,0 0,-16 z"
       id="path3002" />
    <path
       style="fill:#4a6441"
       d="m 28,0 0,24 24,0 0,-24 -24,0 z m 4,4 16,0 0,16 -16,0 0,-16 z"
       id="path3002-7" />
    <path
       style="fill:#4a6441"
       d="m 28,28 0,24 24,0 0,-24 -24,0 z m 4,4 16,0 0,16 -16,0 0,-16 z"
       id="path3002-0" />
    <path
       style="fill:#414a64"
       d="m 0,28 0,24 24,0 0,-24 -24,0 z m 4,4 16,0 0,16 -16,0 0,-16 z"
       id="path3002-9" />
    <path
       style="fill:#404040"
       d="m 34,14 4,4 8,-8 0,-4 -8,8 -4,-4 z"
       id="path3103-82" />
    <path
       style="fill:#404040"
       d="m 34,42 4,4 8,-8 0,-4 -8,8 -4,-4 z"
       id="path3103-4" />
  </g>
</svg>
