<?xml version="1.0" encoding="UTF-8" standalone="no"?>
<!-- Created with Inkscape (http://www.inkscape.org/) -->

<svg
   xmlns:dc="http://purl.org/dc/elements/1.1/"
   xmlns:cc="http://creativecommons.org/ns#"
   xmlns:rdf="http://www.w3.org/1999/02/22-rdf-syntax-ns#"
   xmlns:svg="http://www.w3.org/2000/svg"
   xmlns="http://www.w3.org/2000/svg"
   xmlns:sodipodi="http://sodipodi.sourceforge.net/DTD/sodipodi-0.dtd"
   xmlns:inkscape="http://www.inkscape.org/namespaces/inkscape"
   width="64"
   height="64"
   id="svg2"
   version="1.1"
   inkscape:version="0.48.4 r9939"
   sodipodi:docname="Icon_FolderIso.svg"
   inkscape:export-filename="Icon_FolderIso.png"
   inkscape:export-xdpi="22.5"
   inkscape:export-ydpi="22.5">
  <title
     id="title2989">Icon Folder Iso</title>
  <sodipodi:namedview
     id="base"
     showgrid="true">
    <inkscape:grid
       type="xygrid"
       id="grid2996"
       empspacing="4"
       visible="true"
       enabled="true"
       snapvisiblegridlinesonly="true" />
  </sodipodi:namedview>
  <metadata
     id="metadata7">
    <rdf:RDF>
      <cc:Work
         rdf:about="">
        <dc:format>image/svg+xml</dc:format>
        <dc:type
           rdf:resource="http://purl.org/dc/dcmitype/StillImage" />
        <dc:title>Icon Folder Iso</dc:title>
        <dc:date>2014-02-06</dc:date>
        <dc:creator>
          <cc:Agent>
            <dc:title>Leucos</dc:title>
          </cc:Agent>
        </dc:creator>
        <cc:license
           rdf:resource="http://creativecommons.org/licenses/by-nc-sa/3.0/" />
      </cc:Work>
      <cc:License
         rdf:about="http://creativecommons.org/licenses/by-nc-sa/3.0/">
        <cc:permits
           rdf:resource="http://creativecommons.org/ns#Reproduction" />
        <cc:permits
           rdf:resource="http://creativecommons.org/ns#Distribution" />
        <cc:requires
           rdf:resource="http://creativecommons.org/ns#Notice" />
        <cc:requires
           rdf:resource="http://creativecommons.org/ns#Attribution" />
        <cc:prohibits
           rdf:resource="http://creativecommons.org/ns#CommercialUse" />
        <cc:permits
           rdf:resource="http://creativecommons.org/ns#DerivativeWorks" />
        <cc:requires
           rdf:resource="http://creativecommons.org/ns#ShareAlike" />
      </cc:License>
    </rdf:RDF>
  </metadata>
  <g
     id="layer1">
    <path
       style="fill:#bf9352"
       d="M 25 8 L 17 16 L 4 16 L 4 52 L 24.84375 52 C 24.302781 50.090218 24 48.083058 24 46 C 24 33.849736 33.849736 24 46 24 C 49.602274 24 52.998884 24.871426 56 26.40625 L 56 8 L 25 8 z M 27 12 L 52 12 L 52 16 L 23 16 L 27 12 z "
       id="path3000-1" />
    <path 
       style="fill:#d7dcff;stroke:#424242;stroke-width:4;stroke-linecap:round;stroke-linejoin:miter;stroke-miterlimit:4"
       d="M 46 30.1875 C 37.163444 30.1875 30 37.266997 30 46 C 30 54.733003 37.163444 61.8125 46 61.8125 C 54.836556 61.8125 62 54.733003 62 46 C 62 37.266997 54.836556 30.1875 46 30.1875 z M 46 42 C 48.209139 42 50 43.790861 50 46 C 50 48.209139 48.209139 50 46 50 C 43.790861 50 42 48.209139 42 46 C 42 43.790861 43.790861 42 46 42 z "
       id="path2991" />
  </g>
</svg>
