<?xml version="1.0" encoding="UTF-8" standalone="no"?>
<!-- Created with Inkscape (http://www.inkscape.org/) -->

<svg
   xmlns:dc="http://purl.org/dc/elements/1.1/"
   xmlns:cc="http://creativecommons.org/ns#"
   xmlns:rdf="http://www.w3.org/1999/02/22-rdf-syntax-ns#"
   xmlns:svg="http://www.w3.org/2000/svg"
   xmlns="http://www.w3.org/2000/svg"
   xmlns:sodipodi="http://sodipodi.sourceforge.net/DTD/sodipodi-0.dtd"
   xmlns:inkscape="http://www.inkscape.org/namespaces/inkscape"
   width="64"
   height="64"
   id="svg3173"
   version="1.1"
   inkscape:version="0.48.4 r9939"
   sodipodi:docname="InfoIcon_Information.svg"
   inkscape:export-filename="InfoIcon_Information.png"
   inkscape:export-xdpi="22.5"
   inkscape:export-ydpi="22.5">
  <title
     id="title3194">InfoIcon Information</title>
  <sodipodi:namedview
     showgrid="true">
    <inkscape:grid
       type="xygrid"
       id="grid3192"
       empspacing="4"
       visible="true"
       enabled="true"
       snapvisiblegridlinesonly="true" />
  </sodipodi:namedview>
  <metadata
     id="metadata3178">
    <rdf:RDF>
      <cc:Work
         rdf:about="">
        <dc:format>image/svg+xml</dc:format>
        <dc:type
           rdf:resource="http://purl.org/dc/dcmitype/StillImage" />
        <dc:title>InfoIcon Information</dc:title>
        <dc:date>2013-05-19</dc:date>
        <dc:creator>
          <cc:Agent>
            <dc:title>Leucos</dc:title>
          </cc:Agent>
        </dc:creator>
        <cc:license
           rdf:resource="http://creativecommons.org/licenses/by-nc-sa/3.0/" />
      </cc:Work>
      <cc:License
         rdf:about="http://creativecommons.org/licenses/by-nc-sa/3.0/">
        <cc:permits
           rdf:resource="http://creativecommons.org/ns#Reproduction" />
        <cc:permits
           rdf:resource="http://creativecommons.org/ns#Distribution" />
        <cc:requires
           rdf:resource="http://creativecommons.org/ns#Notice" />
        <cc:requires
           rdf:resource="http://creativecommons.org/ns#Attribution" />
        <cc:prohibits
           rdf:resource="http://creativecommons.org/ns#CommercialUse" />
        <cc:permits
           rdf:resource="http://creativecommons.org/ns#DerivativeWorks" />
        <cc:requires
           rdf:resource="http://creativecommons.org/ns#ShareAlike" />
      </cc:License>
    </rdf:RDF>
  </metadata>
  <g
     id="layer1"
     transform="scale(1.1930134,1.1930133)">
    <path
       id="path2992"
       d="m 50.244093,26.822836 c 0,12.897638 -10.523621,23.421261 -23.421259,23.421261 -12.897637,0 -23.4212593,-10.523623 -23.4212593,-23.421261 0,-12.897638 10.5236223,-23.421261 23.4212593,-23.421261 12.897638,0 23.421259,10.523623 23.421259,23.421261 z M 0,26.822836 c 0,14.811024 12.011811,26.822836 26.822834,26.822836 14.811023,0 26.822834,-12.011812 26.822834,-26.822836 C 53.645668,12.011812 41.633857,0 26.822834,0 12.011811,0 0,12.011812 0,26.822836 z"
       style="fill:#000000" />
    <path
       id="path2994"
       d="m 30.11811,16.688977 c 0,-0.850393 -0.283465,-1.559055 -0.885827,-2.125984 -0.602362,-0.566929 -1.417323,-0.850394 -2.409449,-0.850394 -0.956693,0 -1.73622,0.283465 -2.374016,0.850394 -0.602362,0.602362 -0.921259,1.311024 -0.921259,2.125984 0,0.850394 0.318897,1.559056 0.956692,2.125985 0.602363,0.566929 1.417323,0.81496 2.338583,0.81496 0.992126,0 1.771654,-0.283464 2.374016,-0.81496 0.602362,-0.566929 0.92126,-1.275591 0.92126,-2.125985 m -0.31878,23.244096 0,-17.787402 -5.988198,0 -1.09e-4,17.787402 z"
       style="fill:#000000" />
  </g>
</svg>
