<?xml version="1.0" encoding="UTF-8" standalone="no"?>
<!-- Created with Inkscape (http://www.inkscape.org/) -->

<svg
   xmlns:dc="http://purl.org/dc/elements/1.1/"
   xmlns:cc="http://creativecommons.org/ns#"
   xmlns:rdf="http://www.w3.org/1999/02/22-rdf-syntax-ns#"
   xmlns:svg="http://www.w3.org/2000/svg"
   xmlns="http://www.w3.org/2000/svg"
   xmlns:sodipodi="http://sodipodi.sourceforge.net/DTD/sodipodi-0.dtd"
   xmlns:inkscape="http://www.inkscape.org/namespaces/inkscape"
   width="120"
   height="170"
   id="svg2"
   version="1.1"
   inkscape:version="0.48.2 r9819"
   sodipodi:docname="Extra_NoCover.svg"
   inkscape:export-filename="Extra_Nocover_120x170.png"
   inkscape:export-xdpi="90"
   inkscape:export-ydpi="90">
  <title
     id="title3040">Extra NoCover</title>
  <sodipodi:namedview
     id="base"
     showgrid="true">
    <inkscape:grid
       type="xygrid"
       id="grid2985"
       empspacing="4"
       visible="true"
       enabled="true"
       snapvisiblegridlinesonly="true" />
  </sodipodi:namedview>
  <metadata
     id="metadata7">
    <rdf:RDF>
      <cc:Work
         rdf:about="">
        <dc:format>image/svg+xml</dc:format>
        <dc:type
           rdf:resource="http://purl.org/dc/dcmitype/StillImage" />
        <dc:title>Extra NoCover</dc:title>
		<cc:license
           rdf:resource="http://creativecommons.org/licenses/by-nc-sa/3.0/" />
        <dc:creator>
          <cc:Agent>
            <dc:title>Leucos</dc:title>
          </cc:Agent>
        </dc:creator>
        <dc:date>2012-12-02</dc:date>
      </cc:Work>
      <cc:License
         rdf:about="http://creativecommons.org/licenses/by-nc-sa/3.0/">
        <cc:permits
           rdf:resource="http://creativecommons.org/ns#Reproduction" />
        <cc:permits
           rdf:resource="http://creativecommons.org/ns#Distribution" />
        <cc:requires
           rdf:resource="http://creativecommons.org/ns#Notice" />
        <cc:requires
           rdf:resource="http://creativecommons.org/ns#Attribution" />
        <cc:prohibits
           rdf:resource="http://creativecommons.org/ns#CommercialUse" />
        <cc:permits
           rdf:resource="http://creativecommons.org/ns#DerivativeWorks" />
        <cc:requires
           rdf:resource="http://creativecommons.org/ns#ShareAlike" />
      </cc:License>
    </rdf:RDF>
  </metadata>
  <g
     id="layer1">
    <rect
       style="fill:#000000"
       id="rect3019"
       width="120"
       height="20"
       x="0"
       y="0" />
    <rect
       style="fill:#dcdcdc"
       id="rect3021"
       width="120"
       height="150"
       x="0"
       y="20" />
    <path
       id="path3073-7"
       style="fill:#c0c0c0"
       d="m 106,136 c 3.91962,9.595 10.97491,11.1943 16.46237,11.1943 8.62315,0 11.75884,-6.3968 11.75884,-6.3968 3.89908,6.7306 7.83922,15.9918 13.32668,21.5889 3.8349,3.9116 10.70376,5.8064 15.87653,3.7733 6.69017,-2.6295 12.00724,-7.4069 10.77683,-16.5667 -2.20172,-16.3906 -3.54365,-35.0554 -7.0553,-51.17355 -1.56785,-7.1963 -9.40707,-11.99383 -10.97491,-13.59299 -0.31774,-1.94447 0,-7.99586 -2.35178,-8.79545 -1.56784,-2.39875 -4.42742,-4.79751 -8.62314,-4.79751 -4.70354,0 -10.191,0 -11.75884,4.79751 -2.35176,0.79959 -3.9196,9.59504 -3.9196,9.59504 l -59.578101,6e-5 c 0,0 -1.567845,-8.79545 -3.919611,-9.59504 -1.567846,-4.79751 -7.055301,-4.79751 -11.758836,-4.79751 -4.195726,0 -7.055299,2.39876 -8.623145,4.79751 -2.351767,0.79959 -2.034036,6.85098 -2.351767,8.79545 -1.567844,1.59918 -9.407067,6.39669 -10.974912,13.59293 -3.511649,16.11815 -4.853588,34.78295 -7.055301,51.17355 -1.23042,9.1598 4.086668,13.9372 10.776827,16.5667 5.172766,2.0331 12.041628,0.1389 15.876532,-3.7733 5.487456,-5.5971 9.4276,-14.8583 13.32668,-21.5889 0,0 3.135688,6.3968 11.758834,6.3968 5.48746,0 12.54275,-1.5993 16.46237,-11.1943 z m -29.00512,-48.77472 19.59806,0 m -0.78393,-1.59917 c -3.13569,-7.99586 -13.32668,-5.5971 -19.598052,0 l -7.839224,0 c 7.055301,-8.79545 26.653356,-16.7913 33.708666,0 z" />
  </g>
</svg>
