<?xml version="1.0" encoding="UTF-8" standalone="no"?>
<!-- Created with Inkscape (http://www.inkscape.org/) -->

<svg
   xmlns:dc="http://purl.org/dc/elements/1.1/"
   xmlns:cc="http://creativecommons.org/ns#"
   xmlns:rdf="http://www.w3.org/1999/02/22-rdf-syntax-ns#"
   xmlns:svg="http://www.w3.org/2000/svg"
   xmlns="http://www.w3.org/2000/svg"
   xmlns:sodipodi="http://sodipodi.sourceforge.net/DTD/sodipodi-0.dtd"
   xmlns:inkscape="http://www.inkscape.org/namespaces/inkscape"
   width="32"
   height="32"
   id="svg2"
   version="1.1"
   inkscape:version="0.48.2 r9819"
   sodipodi:docname="Icon_Cover.svg"
   inkscape:export-filename="Icon_Cover_16x16.png"
   inkscape:export-xdpi="45"
   inkscape:export-ydpi="45">
  <title
     id="title3040">Icon Cover</title>
  <sodipodi:namedview
     id="base"
     showgrid="true">
    <inkscape:grid
       type="xygrid"
       id="grid2985"
       empspacing="4"
       visible="true"
       enabled="true"
       snapvisiblegridlinesonly="true" />
  </sodipodi:namedview>
  <metadata
     id="metadata7">
    <rdf:RDF>
      <cc:Work
         rdf:about="">
        <dc:format>image/svg+xml</dc:format>
        <dc:type
           rdf:resource="http://purl.org/dc/dcmitype/StillImage" />
        <dc:title>Icon Cover</dc:title>
		<cc:license
           rdf:resource="http://creativecommons.org/licenses/by-nc-sa/3.0/" />
        <dc:creator>
          <cc:Agent>
            <dc:title>Leucos</dc:title>
          </cc:Agent>
        </dc:creator>
        <dc:date>2012-12-02</dc:date>
      </cc:Work>
      <cc:License
         rdf:about="http://creativecommons.org/licenses/by-nc-sa/3.0/">
        <cc:permits
           rdf:resource="http://creativecommons.org/ns#Reproduction" />
        <cc:permits
           rdf:resource="http://creativecommons.org/ns#Distribution" />
        <cc:requires
           rdf:resource="http://creativecommons.org/ns#Notice" />
        <cc:requires
           rdf:resource="http://creativecommons.org/ns#Attribution" />
        <cc:prohibits
           rdf:resource="http://creativecommons.org/ns#CommercialUse" />
        <cc:permits
           rdf:resource="http://creativecommons.org/ns#DerivativeWorks" />
        <cc:requires
           rdf:resource="http://creativecommons.org/ns#ShareAlike" />
      </cc:License>
    </rdf:RDF>
  </metadata>
  <g
     id="layer1">
    <rect
       style="fill:#000000"
       id="rect3019"
       width="20"
       height="3"
       x="6"
       y="2" />
    <rect
       style="fill:#dcdcdc"
       id="rect3021"
       width="20"
       height="25"
       x="6"
       y="5" />
    <path
       id="path3073-7"
       style="fill:#c0c0c0"
       d="m 26,16 -8.327102,10e-6 c 0,0 -0.261307,-1.44866 -0.653268,-1.58036 -0.261308,-0.79018 -1.175884,-0.79018 -1.959806,-0.79018 -0.699288,0 -1.175884,0.39509 -1.437191,0.79018 -0.391961,0.1317 -0.339006,1.1284 -0.391961,1.44866 -0.261308,0.2634 -1.567845,1.05358 -1.829152,2.23884 -0.585275,2.65476 -0.808932,5.72896 -1.175884,8.42859 -0.20507,1.50867 0.681111,2.29554 1.796138,2.72863 0.862128,0.33487 2.006938,0.0229 2.646089,-0.62148 0.914576,-0.92188 1.571266,-2.44725 2.221113,-3.55582 0,0 0.522615,1.05359 1.959806,1.05359 0.914576,0 2.090458,-0.26342 2.743728,-1.84377 l 2.090458,0 c 0.555052,1.34275 1.488257,1.73478 2.317032,1.82232 m -7.151218,-9.85581 3.266343,0 m -0.130655,-0.26339 c -0.522615,-1.31696 -2.221113,-0.92187 -3.266342,0 l -1.306537,0 c 1.175883,-1.44866 4.442226,-2.76563 5.618111,0 z" />
    <path
       style="fill:#696969"
       d="M 4 0 L 4 32 L 28 32 L 28 0 L 4 0 z M 6 2 L 26 2 L 26 30 L 6 30 L 6 2 z "
       id="path3155" />
  </g>
</svg>
