<?xml version="1.0" encoding="UTF-8" standalone="no"?>
<!-- Created with Inkscape (http://www.inkscape.org/) -->

<svg
   xmlns:dc="http://purl.org/dc/elements/1.1/"
   xmlns:cc="http://creativecommons.org/ns#"
   xmlns:rdf="http://www.w3.org/1999/02/22-rdf-syntax-ns#"
   xmlns:svg="http://www.w3.org/2000/svg"
   xmlns="http://www.w3.org/2000/svg"
   xmlns:sodipodi="http://sodipodi.sourceforge.net/DTD/sodipodi-0.dtd"
   xmlns:inkscape="http://www.inkscape.org/namespaces/inkscape"
   width="32"
   height="32"
   id="svg2"
   version="1.1"
   inkscape:version="0.48.4 r9939"
   sodipodi:docname="Icon_FolderPCSX2.svg"
   inkscape:export-filename="Icon_FolderPCSX2_16x16.png"
   inkscape:export-xdpi="45"
   inkscape:export-ydpi="45">
  <title
     id="title3774">Icon Folder PCSX2</title>
  <sodipodi:namedview
     id="base"
     showgrid="true">
    <inkscape:grid
       type="xygrid"
       id="grid2996"
       empspacing="4"
       visible="true"
       enabled="true"
       snapvisiblegridlinesonly="true" />
  </sodipodi:namedview>
  <metadata
     id="metadata7">
    <rdf:RDF>
      <cc:Work
         rdf:about="">
        <dc:format>image/svg+xml</dc:format>
        <dc:type
           rdf:resource="http://purl.org/dc/dcmitype/StillImage" />
        <dc:title>Icon Folder PCSX2</dc:title>
        <cc:license
           rdf:resource="http://creativecommons.org/licenses/by-nc-sa/3.0/" />
        <dc:creator>
          <cc:Agent>
            <dc:title>Leucos</dc:title>
          </cc:Agent>
        </dc:creator>
        <dc:date>2012-11-13</dc:date>
      </cc:Work>
      <cc:License
         rdf:about="http://creativecommons.org/licenses/by-nc-sa/3.0/">
        <cc:permits
           rdf:resource="http://creativecommons.org/ns#Reproduction" />
        <cc:permits
           rdf:resource="http://creativecommons.org/ns#Distribution" />
        <cc:requires
           rdf:resource="http://creativecommons.org/ns#Notice" />
        <cc:requires
           rdf:resource="http://creativecommons.org/ns#Attribution" />
        <cc:prohibits
           rdf:resource="http://creativecommons.org/ns#CommercialUse" />
        <cc:permits
           rdf:resource="http://creativecommons.org/ns#DerivativeWorks" />
        <cc:requires
           rdf:resource="http://creativecommons.org/ns#ShareAlike" />
      </cc:License>
    </rdf:RDF>
  </metadata>
  <g
     id="layer1">
    <path
       id="path3000"
       style="fill:#424242"
       d="m 4,14 24,0 0,-8 -8,0 -3,4 -13,0 z m -2,16 0,-22 14,0 3,-4 11,0 0,14 -17,0 -3,3 0,9 z" />
    <path
       style="fill:#424242"
       d="m 22,8 4,0 0,2 -4,0 z"
       id="path3002" />
    <path
       style="fill:#424242"
       d="m 16,20 c -2,0 -4,2 -4,4 0,6 0,8 4,8 4,0 2,-4 6,-4 4,0 2,4 6,4 4,0 4,-2 4,-8 0,-2 -2,-4 -4,-4 z m 1,1 10,0 c 3,0 4,3 4,5 0,3 0,5 -3,5 -3,0 -1,-4 -6,-4 -5,0 -3,4 -6,4 -3,0 -3,-2 -3,-5 0,-3 1,-5 4,-5 z"
       id="path3837" />
    <path
       style="fill:#8296c8"
       d="m 16,27 0,-2 -2,0 0,-1 2,0 0,-2 1,0 0,2 2,0 0,1 -2,0 0,2 z"
       id="path3858" />
    <path
       style="fill:#8296c8"
       id="path3860"
       d="m 28,23 c 0,0 0,1 -1,1 0,0 -1,0 -1,-1 0,0 0,-1 1,-1 0,0 1,0 1,1 z" />
    <path
       style="fill:#8296c8"
       id="path3862"
       d="m 26,25 c 0,0 0,1 -1,1 0,0 -1,0 -1,-1 0,0 0,-1 1,-1 0,0 1,0 1,1 z" />
    <path
       style="fill:#8296c8"
       id="path3864"
       d="m 30,25 c 0,0 0,1 -1,1 0,0 -1,0 -1,-1 0,0 0,-1 1,-1 0,0 1,0 1,1 z" />
    <path
       style="fill:#8296c8"
       id="path3866"
       d="m 28,27 c 0,0 0,1 -1,1 0,0 -1,0 -1,-1 0,0 0,-1 1,-1 0,0 1,0 1,1 z" />
  </g>
</svg>
