<?xml version="1.0" encoding="UTF-8" standalone="no"?>
<!-- Created with Inkscape (http://www.inkscape.org/) -->

<svg
   xmlns:dc="http://purl.org/dc/elements/1.1/"
   xmlns:cc="http://creativecommons.org/ns#"
   xmlns:rdf="http://www.w3.org/1999/02/22-rdf-syntax-ns#"
   xmlns:svg="http://www.w3.org/2000/svg"
   xmlns="http://www.w3.org/2000/svg"
   xmlns:sodipodi="http://sodipodi.sourceforge.net/DTD/sodipodi-0.dtd"
   xmlns:inkscape="http://www.inkscape.org/namespaces/inkscape"
   width="32"
   height="32"
   id="svg2"
   version="1.1"
   inkscape:version="0.48.4 r9939"
   sodipodi:docname="Icon_Gear.svg"
   inkscape:export-filename="Icon_Gear_16x16.png"
   inkscape:export-xdpi="45"
   inkscape:export-ydpi="45">
  <title
     id="title3085">Icon Gear</title>
  <sodipodi:namedview
     id="base"
     showgrid="true">
    <inkscape:grid
       type="xygrid"
       id="grid2985"
       empspacing="4"
       visible="true"
       enabled="true"
       snapvisiblegridlinesonly="true" />
  </sodipodi:namedview>
  <metadata
     id="metadata7">
    <rdf:RDF>
      <cc:Work
         rdf:about="">
        <dc:format>image/svg+xml</dc:format>
        <dc:type
           rdf:resource="http://purl.org/dc/dcmitype/StillImage" />
        <dc:title>Icon Gear</dc:title>
        <cc:license
           rdf:resource="http://creativecommons.org/licenses/by-nc-sa/3.0/" />
        <dc:creator>
          <cc:Agent>
            <dc:title>Leucos</dc:title>
          </cc:Agent>
        </dc:creator>
        <dc:date>2012-11-13</dc:date>
      </cc:Work>
      <cc:License
         rdf:about="http://creativecommons.org/licenses/by-nc-sa/3.0/">
        <cc:permits
           rdf:resource="http://creativecommons.org/ns#Reproduction" />
        <cc:permits
           rdf:resource="http://creativecommons.org/ns#Distribution" />
        <cc:requires
           rdf:resource="http://creativecommons.org/ns#Notice" />
        <cc:requires
           rdf:resource="http://creativecommons.org/ns#Attribution" />
        <cc:prohibits
           rdf:resource="http://creativecommons.org/ns#CommercialUse" />
        <cc:permits
           rdf:resource="http://creativecommons.org/ns#DerivativeWorks" />
        <cc:requires
           rdf:resource="http://creativecommons.org/ns#ShareAlike" />
      </cc:License>
    </rdf:RDF>
  </metadata>
  <g
     id="layer1">
    <path
       style="fill:#424242"
       d="m 14,2 0,4.21875 4,0 L 18,2 z M 7.5,4.6875 4.6875,7.5 l 2.96875,2.96875 2.8125,-2.8125 z m 17,0 -2.96875,2.96875 2.8125,2.8125 L 27.3125,7.5 z M 2,14 l 0,4 4.21875,0 0,-4 z m 23.78125,0 0,4 L 30,18 30,14 z M 7.65625,21.53125 4.6875,24.5 7.5,27.3125 10.46875,24.34375 z m 16.6875,0 -2.8125,2.8125 L 24.5,27.3125 27.3125,24.5 z M 14,25.78125 14,30 l 4,0 0,-4.21875 z"
       id="rect3000-1" />
    <path
       style="fill:#424242"
       d="M 16 5 C 10 5 5 10 5 16 C 5 22 10 27 16 27 C 22 27 27 22 27 16 C 27 10 22 5 16 5 z M 16 9 C 20 9 23 12 23 16 C 23 20 20 23 16 23 C 12 23 9 20 9 16 C 9 12 12 9 16 9 z "
       id="path3059" />
    <path
       style="fill:#424242"
       id="path3064"
       d="m 19,16 c 0,1.656854 -1.343146,3 -3,3 -1.656854,0 -3,-1.343146 -3,-3 0,-1.656854 1.343146,-3 3,-3 1.656854,0 3,1.343146 3,3 z" />
  </g>
</svg>
