<?xml version="1.0" encoding="UTF-8" standalone="no"?>
<!-- Created with Inkscape (http://www.inkscape.org/) -->

<svg
   xmlns:dc="http://purl.org/dc/elements/1.1/"
   xmlns:cc="http://creativecommons.org/ns#"
   xmlns:rdf="http://www.w3.org/1999/02/22-rdf-syntax-ns#"
   xmlns:svg="http://www.w3.org/2000/svg"
   xmlns="http://www.w3.org/2000/svg"
   xmlns:sodipodi="http://sodipodi.sourceforge.net/DTD/sodipodi-0.dtd"
   xmlns:inkscape="http://www.inkscape.org/namespaces/inkscape"
   width="256"
   height="256"
   id="svg2"
   version="1.1"
   inkscape:version="0.48.4 r9939"
   sodipodi:docname="SSM_Icon_v2_256x256.svg"
   inkscape:export-filename="SSM_Icon_v2_256x256.png"
   inkscape:export-xdpi="90"
   inkscape:export-ydpi="90">
  <title
     id="title3037">SStatesMan Icon v2</title>
  <sodipodi:namedview
     id="base"
     showgrid="true">
    <inkscape:grid
       type="xygrid"
       id="grid2985"
       empspacing="4"
       visible="true"
       enabled="true"
       snapvisiblegridlinesonly="true" />
  </sodipodi:namedview>
  <metadata
     id="metadata7">
    <rdf:RDF>
      <cc:Work
         rdf:about="">
        <dc:format>image/svg+xml</dc:format>
        <dc:type
           rdf:resource="http://purl.org/dc/dcmitype/StillImage" />
        <dc:title>SStatesMan Icon v2</dc:title>
        <dc:date>2013-08-24</dc:date>
        <dc:creator>
          <cc:Agent>
            <dc:title>Leucos</dc:title>
          </cc:Agent>
        </dc:creator>
        <cc:license
           rdf:resource="http://creativecommons.org/licenses/by-nc-sa/3.0/" />
        <dc:description>SStatesMan Icon v2 256x256</dc:description>
      </cc:Work>
      <cc:License
         rdf:about="http://creativecommons.org/licenses/by-nc-sa/3.0/">
        <cc:permits
           rdf:resource="http://creativecommons.org/ns#Reproduction" />
        <cc:permits
           rdf:resource="http://creativecommons.org/ns#Distribution" />
        <cc:requires
           rdf:resource="http://creativecommons.org/ns#Notice" />
        <cc:requires
           rdf:resource="http://creativecommons.org/ns#Attribution" />
        <cc:prohibits
           rdf:resource="http://creativecommons.org/ns#CommercialUse" />
        <cc:permits
           rdf:resource="http://creativecommons.org/ns#DerivativeWorks" />
        <cc:requires
           rdf:resource="http://creativecommons.org/ns#ShareAlike" />
      </cc:License>
    </rdf:RDF>
  </metadata>
  <g
     inkscape:groupmode="layer"
     id="layer3"
     inkscape:label="Shadow">
    <rect
       style="fill:#000000;fill-opacity:0.5"
       id="rect3000-45"
       width="81"
       height="81"
       x="3"
       y="3" />
    <rect
       style="fill:#000000;fill-opacity:0.5"
       id="rect3000-45-5"
       width="81"
       height="81"
       x="87"
       y="3" />
    <rect
       style="fill:#000000;fill-opacity:0.5"
       id="rect3000-45-1"
       width="81"
       height="81"
       x="171"
       y="3" />
    <rect
       style="fill:#000000;fill-opacity:0.5"
       id="rect3000-45-7"
       width="81"
       height="81"
       x="171"
       y="87" />
    <rect
       style="fill:#000000;fill-opacity:0.5"
       id="rect3000-45-11"
       width="81"
       height="81"
       x="87"
       y="87" />
    <rect
       style="fill:#000000;fill-opacity:0.5"
       id="rect3000-45-52"
       width="81"
       height="81"
       x="3"
       y="87" />
    <rect
       style="fill:#000000;fill-opacity:0.5"
       id="rect3000-45-76"
       width="81"
       height="81"
       x="3"
       y="171" />
    <rect
       style="fill:#000000;fill-opacity:0.5"
       id="rect3000-45-14"
       width="81"
       height="81"
       x="87"
       y="171" />
    <rect
       style="fill:#000000;fill-opacity:0.5"
       id="rect3000-45-2"
       width="81"
       height="81"
       x="171"
       y="171" />
  </g>
  <g
     inkscape:label="Tiles"
     inkscape:groupmode="layer"
     id="layer1">
    <rect
       style="fill:#dcdcdc"
       id="rect3000"
       width="76"
       height="76"
       x="4"
       y="4" />
    <rect
       style="fill:#f5f5f5"
       id="rect3000-1"
       width="76"
       height="76"
       x="172"
       y="4" />
    <rect
       style="fill:#d7dcff"
       id="rect3000-7"
       width="76"
       height="76"
       x="88"
       y="4" />
    <rect
       style="fill:#f5f5f5"
       id="rect3000-4"
       width="76"
       height="76"
       x="4"
       y="88" />
    <rect
       style="fill:#f5f5f5"
       id="rect3000-0"
       width="76"
       height="76"
       x="88"
       y="88" />
    <rect
       style="fill:#f5f5f5"
       id="rect3000-9"
       width="76"
       height="76"
       x="172"
       y="88" />
    <rect
       style="fill:#dcdcdc"
       id="rect3000-48"
       width="76"
       height="76"
       x="4"
       y="172" />
    <rect
       style="fill:#d7dcff"
       id="rect3000-8"
       width="76"
       height="76"
       x="88"
       y="172" />
    <rect
       style="fill:#dcdcdc"
       id="rect3000-2"
       width="76"
       height="76"
       x="172"
       y="172" />
  </g>
  <g
     inkscape:groupmode="layer"
     id="layer4"
     inkscape:label="Icons">
    <path
       id="path3073-7"
       d="m 44.52029,50.027858 c 1.575187,3.855964 4.410512,4.498678 6.61577,4.498678 3.465404,0 4.725552,-2.570696 4.725552,-2.570696 1.566932,2.704843 3.150364,6.426662 5.355623,8.675981 1.541139,1.571964 4.301544,2.333431 6.380336,1.516384 2.688594,-1.056722 4.825377,-2.976627 4.33091,-6.657697 -0.884811,-6.586928 -1.424095,-14.087793 -2.83533,-20.565231 -0.630075,-2.891992 -3.780441,-4.819986 -4.410512,-5.462643 -0.127691,-0.781429 0,-3.213315 -0.945115,-3.534648 C 63.107453,24.963995 61.958267,24 60.272124,24 c -1.890223,0 -4.095481,0 -4.725552,1.927986 -0.945108,0.321333 -1.575179,3.85598 -1.575179,3.85598 l -23.942785,2.4e-5 c 0,0 -0.630074,-3.534646 -1.575183,-3.85598 -0.630073,-1.927986 -2.835329,-1.927986 -4.72555,-1.927986 -1.686145,0 -2.835329,0.963995 -3.465402,1.927986 -0.94511,0.321334 -0.817423,2.753219 -0.94511,3.534648 -0.630074,0.642666 -3.78044,2.570652 -4.410513,5.462619 -1.411234,6.477438 -1.950522,13.978303 -2.83533,20.565231 -0.494471,3.68107 1.642319,5.600975 4.330909,6.657697 2.07879,0.817047 4.839195,0.05582 6.380337,-1.516384 2.205256,-2.249319 3.788691,-5.971138 5.355623,-8.675981 0,0 1.260145,2.570696 4.725549,2.570696 2.205258,0 5.040583,-0.642714 6.61577,-4.498678 z m -11.656352,-19.601205 7.875916,0 M 40.424815,29.78399 c -1.260147,-3.213314 -5.355623,-2.249319 -7.875914,0 l -3.150367,0 c 2.83533,-3.534646 10.711245,-6.747957 13.546578,0 z"
       style="fill:#8296c8" />
    <g
       id="g3023"
       transform="translate(0,-2)">
      <path
         id="path3805"
         d="m 40,156 0,-32 8,0 0,12 16,0 0,-12 2,0 6,6 0,26 z"
         style="fill:#8296c8" />
      <path
         id="path3807"
         d="m 56,124 0,8 4,0 0,-8 z"
         style="fill:#8296c8" />
      <path
         id="path2999"
         d="m 36,152 0,-32 24,0 0,-4 4,0 0,-4 -4,0 0,-4 4,0 0,-4 -4,0 0,-4 -40,0 0,4 -4,0 0,4 4,0 0,4 -4,0 0,4 4,0 0,4 -4,0 0,4 4,0 0,4 -4,0 0,4 4,0 0,4 -4,0 0,4 4,0 0,4 -4,0 0,4 4,0 0,4 z"
         style="fill:#424242" />
    </g>
    <g
       id="g3031"
       transform="translate(-2,-2)">
      <path
         style="fill:#8296c8"
         d="m 16,192 0,26 20,-20 16,16 8,-8 12,12 0,-26 -17,0 c 3.9,0 7,3.1 7,7 0,3.9 -3.1,7 -7,7 -3.9,0 -7,-3.1 -7,-7 0,-3.9 3.1,-7 7,-7 l -39,0 z"
         id="path3791" />
      <path
         style="fill:#424242"
         d="m 12,188 0,48 64,0 0,-48 z m 4,4 56,0 0,40 -56,0 z"
         id="path2997" />
      <path
         style="fill:#424242"
         d="m 14,226 22,-22 16,16 8,-8 14,14 0,-6 -14,-14 -8,8 -16,-16 -22,22 z"
         id="path3770" />
      <path
         id="path3969"
         d="m 48,199 c 0,-4 3,-7 7,-7 4,0 7,3 7,7 0,4 -3,7 -7,7 -4,0 -7,-3 -7,-7 z"
         style="fill:#ffffff" />
    </g>
  </g>
</svg>
