<?xml version="1.0" encoding="UTF-8" standalone="no"?>
<!-- Created with Inkscape (http://www.inkscape.org/) -->

<svg
   xmlns:dc="http://purl.org/dc/elements/1.1/"
   xmlns:cc="http://creativecommons.org/ns#"
   xmlns:rdf="http://www.w3.org/1999/02/22-rdf-syntax-ns#"
   xmlns:svg="http://www.w3.org/2000/svg"
   xmlns="http://www.w3.org/2000/svg"
   xmlns:sodipodi="http://sodipodi.sourceforge.net/DTD/sodipodi-0.dtd"
   xmlns:inkscape="http://www.inkscape.org/namespaces/inkscape"
   width="96"
   height="96"
   id="svg2"
   version="1.1"
   inkscape:version="0.48.4 r9939"
   sodipodi:docname="SSM_Icon_v2_96x96.svg"
   inkscape:export-filename="SSM_Icon_v2_96x96.png"
   inkscape:export-xdpi="90"
   inkscape:export-ydpi="90">
  <title
     id="title3037">SStatesMan Icon v2</title>
  <sodipodi:namedview
     id="base"
     showgrid="true">
    <inkscape:grid
       type="xygrid"
       id="grid2985"
       empspacing="4"
       visible="true"
       enabled="true"
       snapvisiblegridlinesonly="true" />
  </sodipodi:namedview>
  <metadata
     id="metadata7">
    <rdf:RDF>
      <cc:Work
         rdf:about="">
        <dc:format>image/svg+xml</dc:format>
        <dc:type
           rdf:resource="http://purl.org/dc/dcmitype/StillImage" />
        <dc:title>SStatesMan Icon v2</dc:title>
        <dc:date>2013-08-24</dc:date>
        <dc:creator>
          <cc:Agent>
            <dc:title>Leucos</dc:title>
          </cc:Agent>
        </dc:creator>
        <cc:license
           rdf:resource="http://creativecommons.org/licenses/by-nc-sa/3.0/" />
        <dc:description>SStatesMan Icon v2 96x96</dc:description>
      </cc:Work>
      <cc:License
         rdf:about="http://creativecommons.org/licenses/by-nc-sa/3.0/">
        <cc:permits
           rdf:resource="http://creativecommons.org/ns#Reproduction" />
        <cc:permits
           rdf:resource="http://creativecommons.org/ns#Distribution" />
        <cc:requires
           rdf:resource="http://creativecommons.org/ns#Notice" />
        <cc:requires
           rdf:resource="http://creativecommons.org/ns#Attribution" />
        <cc:prohibits
           rdf:resource="http://creativecommons.org/ns#CommercialUse" />
        <cc:permits
           rdf:resource="http://creativecommons.org/ns#DerivativeWorks" />
        <cc:requires
           rdf:resource="http://creativecommons.org/ns#ShareAlike" />
      </cc:License>
    </rdf:RDF>
  </metadata>
  <g
     inkscape:groupmode="layer"
     id="layer3"
     inkscape:label="Shadow">
    <rect
       style="fill:#000000;fill-opacity:0.5"
       id="rect3000-45"
       width="31"
       height="31"
       x="1"
       y="1" />
    <rect
       style="fill:#000000;fill-opacity:0.5"
       id="rect3000-45-5"
       width="31"
       height="31"
       x="33"
       y="1" />
    <rect
       style="fill:#000000;fill-opacity:0.5"
       id="rect3000-45-1"
       width="31"
       height="31"
       x="65"
       y="1" />
    <rect
       style="fill:#000000;fill-opacity:0.5"
       id="rect3000-45-7"
       width="31"
       height="31"
       x="65"
       y="33" />
    <rect
       style="fill:#000000;fill-opacity:0.5"
       id="rect3000-45-11"
       width="31"
       height="31"
       x="33"
       y="33" />
    <rect
       style="fill:#000000;fill-opacity:0.5"
       id="rect3000-45-52"
       width="31"
       height="31"
       x="1"
       y="33" />
    <rect
       style="fill:#000000;fill-opacity:0.5"
       id="rect3000-45-76"
       width="31"
       height="31"
       x="1"
       y="65" />
    <rect
       style="fill:#000000;fill-opacity:0.5"
       id="rect3000-45-14"
       width="31"
       height="31"
       x="33"
       y="65" />
    <rect
       style="fill:#000000;fill-opacity:0.5"
       id="rect3000-45-2"
       width="31"
       height="31"
       x="65"
       y="65" />
  </g>
  <g
     inkscape:label="Tiles"
     inkscape:groupmode="layer"
     id="layer1">
    <rect
       style="fill:#dcdcdc"
       id="rect3000"
       width="28"
       height="28"
       x="2"
       y="2" />
    <rect
       style="fill:#f5f5f5"
       id="rect3000-1"
       width="28"
       height="28"
       x="66"
       y="2" />
    <rect
       style="fill:#d7dcff"
       id="rect3000-7"
       width="28"
       height="28"
       x="34"
       y="2" />
    <rect
       style="fill:#f5f5f5"
       id="rect3000-4"
       width="28"
       height="28"
       x="2"
       y="34" />
    <rect
       style="fill:#f5f5f5"
       id="rect3000-0"
       width="28"
       height="28"
       x="34"
       y="34" />
    <rect
       style="fill:#f5f5f5"
       id="rect3000-9"
       width="28"
       height="28"
       x="66"
       y="34" />
    <rect
       style="fill:#dcdcdc"
       id="rect3000-48"
       width="28"
       height="28"
       x="2"
       y="66" />
    <rect
       style="fill:#d7dcff"
       id="rect3000-8"
       width="28"
       height="28"
       x="34"
       y="66" />
    <rect
       style="fill:#dcdcdc"
       id="rect3000-2"
       width="28"
       height="28"
       x="66"
       y="66" />
  </g>
  <g
     inkscape:groupmode="layer"
     id="layer4"
     inkscape:label="Icons">
    <path
       id="path3073-7"
       d="m 16.924106,18.43416 c 0.577569,1.41385 1.617188,1.64951 2.425783,1.64951 1.270648,0 1.732697,-0.94259 1.732697,-0.94259 0.574542,0.99178 1.155137,2.35645 1.96373,3.18119 0.565087,0.57639 1.577233,0.8556 2.33946,0.55602 0.985815,-0.38747 1.769308,-1.09144 1.587999,-2.44116 -0.324427,-2.41521 -0.522172,-5.16552 -1.039622,-7.54059 -0.231029,-1.0604 -1.386156,-1.76733 -1.617186,-2.00296 -0.04684,-0.28653 0,-1.17822 -0.346544,-1.29604 -0.231029,-0.35346 -0.652393,-0.70693 -1.270641,-0.70693 -0.693088,0 -1.501681,0 -1.732711,0.70693 -0.346534,0.11782 -0.577561,1.41386 -0.577561,1.41386 l -8.779021,1e-5 c 0,0 -0.231027,-1.29605 -0.577567,-1.41387 -0.231026,-0.70692 -1.0396203,-0.70692 -1.7327013,-0.70692 -0.6182527,0 -1.0396202,0.35347 -1.2706476,0.70692 -0.34654,0.11782 -0.2997211,1.00952 -0.34654,1.29605 -0.2310274,0.23564 -1.3861613,0.94256 -1.6171877,2.00295 -0.5174527,2.37507 -0.7151916,5.12538 -1.0396212,7.54059 -0.1813064,1.34972 0.602184,2.05369 1.588,2.44116 0.7622227,0.29958 1.7743713,0.0204 2.3394565,-0.55602 0.8085938,-0.82474 1.3891863,-2.18941 1.9637283,-3.18119 0,0 0.462053,0.94259 1.732702,0.94259 0.808593,0 1.848213,-0.23566 2.425781,-1.64951 z m -4.273995,-7.18712 2.887835,0 m -0.115514,-0.23563 c -0.462054,-1.17822 -1.963729,-0.82476 -2.887835,0 l -1.155135,0 c 1.039621,-1.29605 3.927456,-2.47426 4.967079,0 z"
       style="fill:#8296c8" />
    <g
       id="g3023"
       transform="matrix(0.375,0,0,0.375,0,0.5)">
      <path
         id="path3805"
         d="m 40,156 0,-32 8,0 0,12 16,0 0,-12 2,0 6,6 0,26 z"
         style="color:#000000;fill:#8296c8;fill-opacity:1;stroke:none;stroke-width:0;marker:none;visibility:visible;display:inline;overflow:visible;enable-background:accumulate" />
      <path
         id="path3807"
         d="m 56,124 0,8 4,0 0,-8 z"
         style="color:#000000;fill:#8296c8;fill-opacity:1;fill-rule:nonzero;stroke:none;stroke-width:0;marker:none;visibility:visible;display:inline;overflow:visible;enable-background:accumulate" />
      <path
         id="path2999"
         d="m 36,152 0,-32 24,0 0,-4 4,0 0,-4 -4,0 0,-4 4,0 0,-4 -4,0 0,-4 -40,0 0,4 -4,0 0,4 4,0 0,4 -4,0 0,4 4,0 0,4 -4,0 0,4 4,0 0,4 -4,0 0,4 4,0 0,4 -4,0 0,4 4,0 0,4 -4,0 0,4 4,0 0,4 z"
         style="color:#000000;fill:#424242;fill-opacity:1;fill-rule:nonzero;stroke:none;stroke-width:0;marker:none;visibility:visible;display:inline;overflow:visible;enable-background:accumulate" />
    </g>
    <g
       id="g3031"
       transform="matrix(0.375,0,0,0.375,-0.5,0.5)">
      <path
         style="color:#000000;fill:#8296c8;fill-opacity:1;stroke:none;stroke-width:0;marker:none;visibility:visible;display:inline;overflow:visible;enable-background:accumulate"
         d="m 16,192 0,26 20,-20 16,16 8,-8 12,12 0,-26 -17,0 c 3.9,0 7,3.1 7,7 0,3.9 -3.1,7 -7,7 -3.9,0 -7,-3.1 -7,-7 0,-3.9 3.1,-7 7,-7 l -39,0 z"
         id="path3791" />
      <path
         style="color:#000000;fill:#424242;fill-opacity:1;stroke:none;stroke-width:0;marker:none;visibility:visible;display:inline;overflow:visible;enable-background:accumulate"
         d="m 12,188 0,48 64,0 0,-48 z m 4,4 56,0 0,40 -56,0 z"
         id="path2997" />
      <path
         style="color:#000000;fill:#424242;fill-opacity:1;fill-rule:nonzero;stroke:none;stroke-width:0;marker:none;visibility:visible;display:inline;overflow:visible;enable-background:accumulate"
         d="m 14,226 22,-22 16,16 8,-8 14,14 0,-6 -14,-14 -8,8 -16,-16 -22,22 z"
         id="path3770" />
      <path
         id="path3969"
         d="m 48,199 c 0,-4 3,-7 7,-7 4,0 7,3 7,7 0,4 -3,7 -7,7 -4,0 -7,-3 -7,-7 z"
         style="fill:#ffffff;fill-opacity:1;stroke:none" />
    </g>
  </g>
</svg>
